# xmcd
# 
# Track frame offsets:
#     150
#     23932
#     36202
#     52822
#     88205
#     100332
#     116900
#     131492
#     145755
#     161710
#     184457
# 
# Disc length: 2803
# 
# Revision: 1
# Processed by: cddbd v1.5.2PL0 Copyright (c) Steve Scherf et al.
# Submitted via: fre:ac v1.1beta1pre3
# 
DISCID=9b0af10b
DTITLE=デキシード・ザ・エモンズ - Velb
DYEAR=2002
DGENRE=Rock
TTITLE0=ベルブ
TTITLE1=ブレーキンダウン（断固そうあるべき）
TTITLE2=ホリデイ
TTITLE3=スモールハーバー
TTITLE4=ひとひらの雪//光る涙
TTITLE5=アイ・ガット・マネー
TTITLE6=女王蜂
TTITLE7=「青春」
TTITLE8=サッド・ソング・ゴーズ [イン・ザ・ナイト]
TTITLE9=海辺の二人
TTITLE10=ビューティフォー・トゥデイ
EXTD=
EXTT0=
EXTT1=
EXTT2=
EXTT3=
EXTT4=
EXTT5=
EXTT6=
EXTT7=
EXTT8=
EXTT9=
EXTT10=
PLAYORDER=
